<svg width="238" height="75" viewBox="0 0 238 75" fill="none" xmlns="http://www.w3.org/2000/svg">
<path d="M93.864 47.384C92.584 47.384 91.392 47.152 90.288 46.688C89.2 46.224 88.256 45.592 87.456 44.792C86.656 43.976 86.024 43.024 85.56 41.936C85.112 40.832 84.888 39.656 84.888 38.408C84.888 37.16 85.112 35.992 85.56 34.904C86.024 33.8 86.656 32.848 87.456 32.048C88.256 31.232 89.2 30.592 90.288 30.128C91.392 29.664 92.584 29.432 93.864 29.432C95.144 29.432 96.328 29.664 97.416 30.128C98.52 30.592 99.472 31.232 100.272 32.048C101.072 32.848 101.696 33.8 102.144 34.904C102.608 35.992 102.84 37.16 102.84 38.408C102.84 39.656 102.608 40.832 102.144 41.936C101.696 43.024 101.072 43.976 100.272 44.792C99.472 45.592 98.52 46.224 97.416 46.688C96.328 47.152 95.144 47.384 93.864 47.384ZM93.864 44.312C94.664 44.312 95.408 44.168 96.096 43.88C96.8 43.592 97.408 43.192 97.92 42.68C98.448 42.168 98.856 41.552 99.144 40.832C99.448 40.096 99.6 39.288 99.6 38.408C99.6 37.528 99.448 36.728 99.144 36.008C98.856 35.272 98.448 34.648 97.92 34.136C97.408 33.624 96.8 33.224 96.096 32.936C95.408 32.648 94.664 32.504 93.864 32.504C93.064 32.504 92.312 32.648 91.608 32.936C90.92 33.224 90.312 33.624 89.784 34.136C89.272 34.648 88.864 35.272 88.56 36.008C88.272 36.728 88.128 37.528 88.128 38.408C88.128 39.288 88.272 40.096 88.56 40.832C88.864 41.552 89.272 42.168 89.784 42.68C90.312 43.192 90.92 43.592 91.608 43.88C92.312 44.168 93.064 44.312 93.864 44.312ZM104.982 35.24H107.934V36.656H108.126C108.414 36.16 108.862 35.736 109.47 35.384C110.078 35.032 110.83 34.856 111.726 34.856C112.478 34.856 113.19 35.016 113.862 35.336C114.55 35.64 115.15 36.072 115.662 36.632C116.19 37.176 116.606 37.832 116.91 38.6C117.214 39.368 117.366 40.208 117.366 41.12C117.366 42.032 117.214 42.872 116.91 43.64C116.606 44.408 116.19 45.072 115.662 45.632C115.15 46.176 114.55 46.608 113.862 46.928C113.19 47.232 112.478 47.384 111.726 47.384C110.83 47.384 110.078 47.208 109.47 46.856C108.862 46.504 108.414 46.08 108.126 45.584H107.934L108.126 47.264V52.184H104.982V35.24ZM111.078 44.48C111.494 44.48 111.886 44.4 112.254 44.24C112.638 44.08 112.974 43.856 113.262 43.568C113.55 43.28 113.782 42.928 113.958 42.512C114.134 42.096 114.222 41.632 114.222 41.12C114.222 40.608 114.134 40.144 113.958 39.728C113.782 39.312 113.55 38.96 113.262 38.672C112.974 38.384 112.638 38.16 112.254 38C111.886 37.84 111.494 37.76 111.078 37.76C110.662 37.76 110.262 37.84 109.878 38C109.51 38.144 109.182 38.36 108.894 38.648C108.606 38.936 108.374 39.288 108.198 39.704C108.022 40.12 107.934 40.592 107.934 41.12C107.934 41.648 108.022 42.12 108.198 42.536C108.374 42.952 108.606 43.304 108.894 43.592C109.182 43.88 109.51 44.104 109.878 44.264C110.262 44.408 110.662 44.48 111.078 44.48ZM120.203 37.928H118.139V35.24H120.203V31.64H123.347V35.24H126.227V37.928H123.347V42.488C123.347 42.76 123.371 43.016 123.419 43.256C123.483 43.48 123.595 43.672 123.755 43.832C123.979 44.088 124.299 44.216 124.715 44.216C124.987 44.216 125.203 44.192 125.363 44.144C125.523 44.08 125.675 44 125.819 43.904L126.707 46.664C126.339 46.84 125.939 46.968 125.507 47.048C125.091 47.144 124.627 47.192 124.115 47.192C123.523 47.192 122.987 47.104 122.507 46.928C122.043 46.736 121.651 46.48 121.331 46.16C120.579 45.44 120.203 44.416 120.203 43.088V37.928ZM130.409 33.536C130.137 33.536 129.873 33.488 129.617 33.392C129.377 33.28 129.161 33.136 128.969 32.96C128.793 32.768 128.649 32.552 128.537 32.312C128.441 32.072 128.393 31.808 128.393 31.52C128.393 31.232 128.441 30.968 128.537 30.728C128.649 30.488 128.793 30.28 128.969 30.104C129.161 29.912 129.377 29.768 129.617 29.672C129.873 29.56 130.137 29.504 130.409 29.504C130.969 29.504 131.449 29.704 131.849 30.104C132.249 30.488 132.449 30.96 132.449 31.52C132.449 32.08 132.249 32.56 131.849 32.96C131.449 33.344 130.969 33.536 130.409 33.536ZM128.849 47V35.24H131.993V47H128.849ZM140.507 47.384C139.771 47.384 139.067 47.28 138.395 47.072C137.723 46.864 137.107 46.552 136.547 46.136C135.987 45.72 135.499 45.216 135.083 44.624C134.667 44.016 134.339 43.312 134.099 42.512L137.147 41.312C137.371 42.176 137.763 42.896 138.323 43.472C138.883 44.032 139.619 44.312 140.531 44.312C140.867 44.312 141.187 44.272 141.491 44.192C141.811 44.096 142.091 43.968 142.331 43.808C142.587 43.632 142.787 43.416 142.931 43.16C143.075 42.904 143.147 42.608 143.147 42.272C143.147 41.952 143.091 41.664 142.979 41.408C142.867 41.152 142.675 40.912 142.403 40.688C142.147 40.464 141.803 40.248 141.371 40.04C140.955 39.832 140.435 39.616 139.811 39.392L138.755 39.008C138.291 38.848 137.819 38.632 137.339 38.36C136.875 38.088 136.451 37.76 136.067 37.376C135.683 36.992 135.363 36.544 135.107 36.032C134.867 35.504 134.747 34.912 134.747 34.256C134.747 33.584 134.875 32.96 135.131 32.384C135.403 31.792 135.779 31.28 136.259 30.848C136.755 30.4 137.339 30.056 138.011 29.816C138.699 29.56 139.459 29.432 140.291 29.432C141.155 29.432 141.899 29.552 142.523 29.792C143.163 30.016 143.699 30.312 144.131 30.68C144.579 31.032 144.939 31.424 145.211 31.856C145.483 32.288 145.683 32.696 145.811 33.08L142.955 34.28C142.795 33.8 142.499 33.368 142.067 32.984C141.651 32.6 141.075 32.408 140.339 32.408C139.635 32.408 139.051 32.576 138.587 32.912C138.123 33.232 137.891 33.656 137.891 34.184C137.891 34.696 138.115 35.136 138.563 35.504C139.011 35.856 139.723 36.2 140.699 36.536L141.779 36.896C142.467 37.136 143.091 37.416 143.651 37.736C144.227 38.04 144.715 38.408 145.115 38.84C145.531 39.272 145.843 39.768 146.051 40.328C146.275 40.872 146.387 41.504 146.387 42.224C146.387 43.12 146.203 43.896 145.835 44.552C145.483 45.192 145.027 45.72 144.467 46.136C143.907 46.552 143.275 46.864 142.571 47.072C141.867 47.28 141.179 47.384 140.507 47.384ZM150.424 33.536C150.152 33.536 149.888 33.488 149.632 33.392C149.392 33.28 149.176 33.136 148.984 32.96C148.808 32.768 148.664 32.552 148.552 32.312C148.456 32.072 148.408 31.808 148.408 31.52C148.408 31.232 148.456 30.968 148.552 30.728C148.664 30.488 148.808 30.28 148.984 30.104C149.176 29.912 149.392 29.768 149.632 29.672C149.888 29.56 150.152 29.504 150.424 29.504C150.984 29.504 151.464 29.704 151.864 30.104C152.264 30.488 152.464 30.96 152.464 31.52C152.464 32.08 152.264 32.56 151.864 32.96C151.464 33.344 150.984 33.536 150.424 33.536ZM148.864 47V35.24H152.008V47H148.864ZM165.902 44.168C165.358 45.128 164.622 45.904 163.694 46.496C162.782 47.088 161.662 47.384 160.334 47.384C159.438 47.384 158.606 47.232 157.838 46.928C157.086 46.608 156.43 46.168 155.87 45.608C155.31 45.048 154.87 44.392 154.55 43.64C154.246 42.872 154.094 42.032 154.094 41.12C154.094 40.272 154.246 39.472 154.55 38.72C154.854 37.952 155.278 37.288 155.822 36.728C156.366 36.152 157.006 35.696 157.742 35.36C158.494 35.024 159.318 34.856 160.214 34.856C161.158 34.856 161.998 35.016 162.734 35.336C163.47 35.64 164.086 36.072 164.582 36.632C165.078 37.176 165.454 37.824 165.71 38.576C165.966 39.328 166.094 40.144 166.094 41.024C166.094 41.136 166.094 41.232 166.094 41.312C166.078 41.408 166.07 41.496 166.07 41.576C166.054 41.656 166.046 41.744 166.046 41.84H157.19C157.254 42.32 157.382 42.736 157.574 43.088C157.782 43.424 158.03 43.712 158.318 43.952C158.622 44.176 158.95 44.344 159.302 44.456C159.654 44.552 160.014 44.6 160.382 44.6C161.102 44.6 161.694 44.44 162.158 44.12C162.638 43.784 163.014 43.368 163.286 42.872L165.902 44.168ZM163.046 39.608C163.03 39.4 162.958 39.168 162.83 38.912C162.718 38.656 162.542 38.416 162.302 38.192C162.078 37.968 161.79 37.784 161.438 37.64C161.102 37.496 160.694 37.424 160.214 37.424C159.542 37.424 158.95 37.616 158.438 38C157.926 38.384 157.566 38.92 157.358 39.608H163.046ZM166.619 35.24H170.195L173.123 42.728H173.291L176.243 35.24H179.795L174.731 47H171.635L166.619 35.24ZM192.011 44.168C191.467 45.128 190.731 45.904 189.803 46.496C188.891 47.088 187.771 47.384 186.443 47.384C185.547 47.384 184.715 47.232 183.947 46.928C183.195 46.608 182.539 46.168 181.979 45.608C181.419 45.048 180.979 44.392 180.659 43.64C180.355 42.872 180.203 42.032 180.203 41.12C180.203 40.272 180.355 39.472 180.659 38.72C180.963 37.952 181.387 37.288 181.931 36.728C182.475 36.152 183.115 35.696 183.851 35.36C184.603 35.024 185.427 34.856 186.323 34.856C187.267 34.856 188.107 35.016 188.843 35.336C189.579 35.64 190.195 36.072 190.691 36.632C191.187 37.176 191.563 37.824 191.819 38.576C192.075 39.328 192.203 40.144 192.203 41.024C192.203 41.136 192.203 41.232 192.203 41.312C192.187 41.408 192.179 41.496 192.179 41.576C192.163 41.656 192.155 41.744 192.155 41.84H183.299C183.363 42.32 183.491 42.736 183.683 43.088C183.891 43.424 184.139 43.712 184.427 43.952C184.731 44.176 185.059 44.344 185.411 44.456C185.763 44.552 186.123 44.6 186.491 44.6C187.211 44.6 187.803 44.44 188.267 44.12C188.747 43.784 189.123 43.368 189.395 42.872L192.011 44.168ZM189.155 39.608C189.139 39.4 189.067 39.168 188.939 38.912C188.827 38.656 188.651 38.416 188.411 38.192C188.187 37.968 187.899 37.784 187.547 37.64C187.211 37.496 186.803 37.424 186.323 37.424C185.651 37.424 185.059 37.616 184.547 38C184.035 38.384 183.675 38.92 183.467 39.608H189.155Z" fill="black"/>
<g clip-path="url(#clip0_8_31)">
<path d="M77 39.1533C75.928 38.6768 74.929 38.224 73.9788 37.7474C73.8326 37.676 73.7839 37.3662 73.7595 37.1756C73.5159 33.5775 71.7617 31.0278 68.3263 29.7173C63.9163 28.0493 58.946 30.5274 57.5816 34.9595C57.4354 35.4599 57.5572 35.6744 58.0201 35.8888C60.2617 36.8896 62.4544 37.9142 64.696 38.915C65.232 39.1533 65.8655 39.2248 66.4015 39.4869C66.6939 39.6299 67.0593 39.9397 67.0837 40.2018C67.1568 41.2979 67.108 42.394 67.108 43.6092C66.6695 43.4186 66.304 43.2756 65.9629 43.1088C62.2352 41.3694 58.483 39.6061 54.7309 37.8904C54.1705 37.6283 53.9513 37.3662 54 36.7228C54.4386 32.1478 56.7288 28.7641 61.0657 26.977C65.3782 25.2137 69.4714 25.8809 73.0286 28.8594C75.8061 31.147 77.0244 34.197 77 37.7236C77 38.1525 77 38.6053 77 39.1533Z" fill="#333333"/>
<path d="M71.9566 45.587C71.7129 49.0183 68.6186 51.3535 65.0371 51.1867C61.7723 51.0437 59.0434 48.2319 58.946 44.9436C58.9216 43.8713 58.946 42.7991 58.946 41.6315C60.018 42.108 61.0413 42.5608 62.0646 43.085C62.2108 43.1565 62.3326 43.4424 62.3326 43.6331C62.3326 44.2049 62.2352 44.8006 62.2839 45.3725C62.4057 46.7308 63.7458 47.8983 65.232 48.0175C67.1081 48.1605 68.7405 46.7784 68.7892 44.9198C68.8379 42.3463 68.8136 39.749 68.7892 37.1755C68.7648 35.7458 67.7903 34.5544 66.4259 34.197C65.0127 33.7919 63.5752 34.3161 62.7468 35.5076C62.6494 35.6505 62.5519 35.8173 62.4057 36.0318C61.9184 35.8173 61.4311 35.6267 60.9682 35.4122C60.5053 35.1978 60.0424 34.9833 59.5064 34.745C60.286 33.0771 61.5042 31.9333 63.2341 31.3138C67.2055 29.884 71.5911 32.386 71.9322 36.5084C72.2002 39.4869 72.1759 42.5608 71.9566 45.587Z" fill="#0072F7"/>
<path d="M76.9756 44.9913C77 50.2097 72.7119 55.0945 67.4248 55.8571C60.1642 56.9055 54.0487 51.7586 54 44.5862C54 44.062 54 43.5378 54 42.9182C55.072 43.3948 56.071 43.8475 57.0456 44.3241C57.1917 44.3956 57.2405 44.7053 57.2405 44.896C57.4354 49.6378 61.2119 53.0215 66.036 52.8308C69.8369 52.6879 73.2479 49.5663 73.6377 45.8968C73.7352 44.9913 73.7352 44.0858 73.8083 43.085C74.8072 43.5378 75.7818 43.9667 76.732 44.4432C76.8782 44.5147 76.9756 44.8007 76.9756 44.9913Z" fill="#333333"/>
</g>
<defs>
<clipPath id="clip0_8_31">
<rect width="23" height="30" fill="white" transform="translate(54 26)"/>
</clipPath>
</defs>
</svg>
